<svg width="333" height="24" viewBox="0 0 333 24" fill="none" xmlns="http://www.w3.org/2000/svg">
<path d="M30.2339 23.2092H23.89L29.8006 5.13697H0L1.57823 0H67.152L65.5428 5.13697H36.1135L30.2339 23.2092Z" fill="black"/>
<path d="M121.715 23.2092H61.185L68.7357 0H129.203L127.718 4.70373H73.5633L72.016 9.25274H126.016L124.531 13.9565H70.6234L69.0761 18.5055H123.293L121.715 23.2092Z" fill="black"/>
<path d="M129.562 23.2092H123.621L131.203 0H153.979L160.632 16.3393L177.961 0H202.006L194.455 23.2092H188.142L194.084 4.70373H180.499L161.003 23.0854H156.64L149.213 4.70373H135.659L129.562 23.2092Z" fill="black"/>
<path d="M209.132 4.70373L206.904 11.4499H251.775C253.467 11.4499 254.88 11.1714 256.015 10.6143C257.17 10.0573 257.882 9.12895 258.15 7.82924C258.356 6.79772 258.181 6.02408 257.624 5.50832C257.088 4.97193 256.201 4.70373 254.963 4.70373H209.132ZM203.098 23.2092H196.754L204.305 0H257.005C258.738 0 260.213 0.319771 261.43 0.959314C262.668 1.59886 263.555 2.48596 264.092 3.62064C264.649 4.73468 264.824 5.99313 264.618 7.396C264.35 9.23211 263.689 10.8103 262.637 12.1307C261.585 13.4304 260.193 14.431 258.46 15.1324C256.747 15.8132 254.746 16.1536 252.456 16.1536H205.388L203.098 23.2092Z" fill="black"/>
<path d="M324.836 21.4453C322.752 22.6212 320.524 23.2092 318.152 23.2092H273.002C270.898 23.2092 269.134 22.776 267.71 21.9095C266.287 21.0224 265.286 19.8052 264.709 18.2579C264.131 16.7106 263.997 14.9777 264.306 13.059C264.678 10.7691 265.555 8.62351 266.937 6.62236C268.319 4.62121 270.062 3.02235 272.167 1.82579C274.271 0.608597 276.52 0 278.913 0H324.062C326.249 0 328.054 0.443554 329.478 1.33066C330.901 2.19714 331.892 3.40402 332.449 4.9513C333.006 6.49858 333.119 8.25216 332.789 10.212C332.397 12.5227 331.5 14.6785 330.097 16.6797C328.694 18.6602 326.94 20.2487 324.836 21.4453ZM271.269 17.3295C272.012 18.1135 273.188 18.5055 274.797 18.5055H317.471C318.709 18.5055 319.967 18.1341 321.246 17.3914C322.525 16.6487 323.639 15.6069 324.588 14.2659C325.537 12.9043 326.167 11.357 326.476 9.62408C326.765 7.93239 326.579 6.69457 325.919 5.91061C325.259 5.10602 324.196 4.70373 322.732 4.70373H279.315C278.036 4.70373 276.788 5.07508 275.571 5.81777C274.353 6.56047 273.301 7.61262 272.414 8.97423C271.548 10.3152 270.949 11.8522 270.619 13.5851C270.31 15.2768 270.527 16.525 271.269 17.3295Z" fill="black"/>
</svg>
