<svg width="4636" height="24" viewBox="0 0 4636 24" fill="none" xmlns="http://www.w3.org/2000/svg">
<path d="M460.192 23.2092H453.848L459.883 4.70374H0L1.48539 0H925.614L924.129 4.70374H466.195L460.192 23.2092Z" fill="black"/>
<path d="M1846.18 23.2092H922.643L930.194 0H1853.67L1852.19 4.70374H935.021L933.474 9.25275H1850.52L1849 13.9565H932.081L930.534 18.5055H1847.76L1846.18 23.2092Z" fill="black"/>
<path d="M1857.35 23.2092H1851.04L1858.62 0H2307.24L2314.7 13.3685L2330.61 0H2781.7L2774.15 23.2092H2767.84L2773.78 4.70374H2333.05L2315.81 19.2172H2311.33L2303.22 4.70374H1863.42L1857.35 23.2092Z" fill="black"/>
<path d="M2791.79 4.70374L2789.56 11.4499H3695.12C3696.81 11.4499 3698.23 11.1713 3699.36 10.6143C3700.52 10.0573 3701.23 9.12894 3701.5 7.82922C3701.7 6.7977 3701.53 6.02406 3700.97 5.5083C3700.43 4.97191 3699.55 4.70374 3698.31 4.70374H2791.79ZM2785.75 23.2092H2779.41L2786.96 0H3700.35C3702.08 0 3703.56 0.319747 3704.78 0.95929C3706.01 1.59883 3706.9 2.48599 3707.44 3.62067C3707.99 4.73471 3708.17 5.99313 3707.96 7.396C3707.7 9.2321 3707.04 10.8103 3705.98 12.1307C3704.93 13.4304 3703.54 14.431 3701.81 15.1324C3700.09 15.8132 3698.09 16.1536 3695.8 16.1536H2788.04L2785.75 23.2092Z" fill="black"/>
<path d="M4627.45 21.4453C4625.37 22.6212 4623.14 23.2092 4620.77 23.2092H3719.48C3717.37 23.2092 3715.61 22.776 3714.18 21.9095C3712.76 21.0224 3711.76 19.8052 3711.18 18.2579C3710.6 16.7107 3710.47 14.9776 3710.78 13.059C3711.15 10.769 3712.03 8.62352 3713.41 6.62238C3714.79 4.62123 3716.54 3.02237 3718.64 1.82581C3720.74 0.608612 3722.99 0 3725.39 0H4626.68C4628.86 0 4630.67 0.44358 4632.09 1.33069C4633.52 2.19717 4634.51 3.40401 4635.06 4.95129C4635.62 6.49857 4635.73 8.25215 4635.4 10.212C4635.01 12.5226 4634.11 14.6785 4632.71 16.6797C4631.31 18.6602 4629.56 20.2487 4627.45 21.4453ZM3717.74 17.3295C3718.49 18.1135 3719.66 18.5055 3721.27 18.5055H4620.09C4621.32 18.5055 4622.58 18.1341 4623.86 17.3914C4625.14 16.6487 4626.25 15.6069 4627.2 14.2659C4628.15 12.9043 4628.78 11.357 4629.09 9.62408C4629.38 7.93239 4629.19 6.69454 4628.53 5.91058C4627.87 5.106 4626.81 4.70374 4625.35 4.70374H3725.79C3724.51 4.70374 3723.26 5.07505 3722.04 5.81775C3720.83 6.56044 3719.77 7.61264 3718.89 8.97424C3718.02 10.3152 3717.42 11.8522 3717.09 13.5851C3716.78 15.2768 3717 16.5249 3717.74 17.3295Z" fill="black"/>
</svg>
